<svg width="134" height="48" viewBox="0 0 134 48" fill="none" xmlns="http://www.w3.org/2000/svg">
<path d="M37.6885 28.8171C37.6885 30.4698 37.2458 31.6389 36.3614 32.3264C35.4764 33.0142 34.4544 33.3578 33.2954 33.3578C32.3975 33.3578 31.7087 33.1524 31.2293 32.7418C30.7499 32.331 30.5103 31.8097 30.5103 31.1782C30.5103 29.9245 31.3995 29.1779 33.1779 28.9402C34.9558 28.7028 36.4596 28.3808 37.6885 27.9739V28.8171ZM40.153 32.9615C40.0789 32.309 40.0416 31.0272 40.0416 29.1155V25.9762C40.0416 24.886 39.9521 23.9958 39.7739 23.3039C39.595 22.6122 39.1156 22.0218 38.3355 21.5328C37.5555 21.0442 36.3331 20.7999 34.668 20.7999C32.8902 20.7999 31.4851 21.1377 30.4474 21.8069L31.9167 23.2643C32.5047 22.893 33.3042 22.7071 34.3153 22.7071C35.1078 22.7071 35.7401 22.8019 36.2111 22.9926C36.6813 23.1823 37.0233 23.4331 37.2372 23.7447C37.4505 24.0559 37.5792 24.3564 37.623 24.6464C37.6665 24.9364 37.6885 25.4312 37.6885 26.1317C37.1566 26.3217 36.4809 26.482 35.662 26.6114L33.4651 26.936C31.4519 27.1783 30.0377 27.6695 29.2224 28.4089C28.4079 29.1482 28 30.089 28 31.2307C28 32.424 28.423 33.3838 29.2682 34.1104C30.1137 34.8371 31.269 35.1999 32.7332 35.1999C34.5634 35.1999 36.2677 34.5252 37.8455 33.1768C37.941 33.8771 38.1022 34.4435 38.3289 34.876H40.8C40.4426 34.2529 40.2269 33.6155 40.153 32.9615Z" fill="#212121"/>
<path d="M108.888 28.8171C108.888 30.4698 108.446 31.6389 107.561 32.3264C106.676 33.0142 105.655 33.3578 104.495 33.3578C103.598 33.3578 102.909 33.1524 102.429 32.7418C101.95 32.331 101.71 31.8097 101.71 31.1782C101.71 29.9245 102.599 29.1779 104.378 28.9402C106.155 28.7028 107.659 28.3808 108.888 27.9739V28.8171ZM111.353 32.9615C111.279 32.309 111.242 31.0272 111.242 29.1155V25.9762C111.242 24.886 111.152 23.9958 110.974 23.3039C110.795 22.6122 110.316 22.0218 109.536 21.5328C108.755 21.0442 107.533 20.7999 105.868 20.7999C104.09 20.7999 102.685 21.1377 101.647 21.8069L103.117 23.2643C103.705 22.893 104.504 22.7071 105.515 22.7071C106.308 22.7071 106.94 22.8019 107.411 22.9926C107.881 23.1823 108.223 23.4331 108.438 23.7447C108.65 24.0559 108.78 24.3564 108.823 24.6464C108.867 24.9364 108.888 25.4312 108.888 26.1317C108.357 26.3217 107.681 26.482 106.862 26.6114L104.666 26.936C102.652 27.1783 101.238 27.6695 100.423 28.4089C99.6078 29.1482 99.2001 30.089 99.2001 31.2307C99.2001 32.424 99.6226 33.3838 100.468 34.1104C101.314 34.8371 102.469 35.1999 103.933 35.1999C105.763 35.1999 107.468 34.5252 109.046 33.1768C109.141 33.8771 109.302 34.4435 109.529 34.876H112C111.643 34.2529 111.427 33.6155 111.353 32.9615Z" fill="#212121"/>
<path d="M67.181 26.189C67.0845 24.7108 66.6464 23.6454 65.8667 22.9921C65.087 22.34 64.2343 22.0131 63.311 22.0131C62.2038 22.0131 61.2931 22.4008 60.5783 23.1771C59.8632 23.9526 59.4494 24.9574 59.336 26.189H67.181ZM69.5999 28.216H59.2054C59.3015 29.8235 59.7393 31.0508 60.52 31.8999C61.2996 32.7489 62.2731 33.173 63.4413 33.173C64.3393 33.173 65.0932 32.9242 65.7035 32.4271C66.314 31.9303 66.9007 31.1129 67.1024 29.9376H69.5187C69.3323 31.8964 68.4098 33.169 67.3641 33.9809C66.3181 34.7941 65.011 35.2 63.4413 35.2C61.3579 35.2 59.7303 34.531 58.5583 33.194C57.3862 31.8569 56.7999 30.0286 56.7999 27.7094C56.7999 25.4186 57.3684 23.5601 58.5061 22.1364C59.6436 20.7122 61.2454 20 63.311 20C64.3219 20 65.296 20.2329 66.2333 20.6987C67.1704 21.1643 67.9652 21.9559 68.6188 23.0745C69.2724 24.1927 69.5999 25.9066 69.5999 28.216Z" fill="#212121"/>
<path d="M87.8299 26.189C87.7274 24.7108 87.2626 23.6454 86.4342 22.9921C85.6051 22.34 84.699 22.0131 83.7181 22.0131C82.5417 22.0131 81.5742 22.4008 80.8146 23.1771C80.0554 23.9526 79.6148 24.9574 79.4946 26.189H87.8299ZM90.4001 28.216H79.3563C79.4577 29.8235 79.9235 31.0508 80.7526 31.8999C81.5809 32.7489 82.6159 33.173 83.8565 33.173C84.8107 33.173 85.6117 32.9242 86.2601 32.4271C86.9087 31.9303 87.5323 31.1129 87.7464 29.9376H90.3144C90.1157 31.8964 89.1355 33.169 88.0245 33.9809C86.9132 34.7941 85.5243 35.2 83.8565 35.2C81.6431 35.2 79.9135 34.531 78.6683 33.194C77.423 31.8569 76.8 30.0286 76.8 27.7094C76.8 25.4186 77.404 23.5601 78.6134 22.1364C79.8211 20.7122 81.5235 20 83.7181 20C84.7922 20 85.8272 20.2329 86.823 20.6987C87.8186 21.1643 88.6632 21.9559 89.3582 23.0745C90.052 24.1927 90.4001 25.9066 90.4001 28.216Z" fill="#212121"/>
<path d="M125.6 34.3999H123.257V26.3152C123.257 24.9529 123.004 24.0171 122.499 23.5073C121.994 22.9975 121.292 22.7427 120.395 22.7427C119.704 22.7427 119.05 22.9058 118.433 23.2314C117.816 23.5573 117.378 24.0171 117.119 24.6103C116.86 25.2034 116.73 26.0434 116.73 27.1299V34.3999H114.4V21.1006H116.497V22.9809H116.549C117.041 22.2539 117.648 21.7087 118.368 21.3448C119.089 20.9817 119.924 20.7999 120.874 20.7999C121.599 20.7999 122.316 20.9253 123.024 21.1758C123.731 21.4266 124.286 21.8027 124.687 22.3041C125.088 22.8051 125.341 23.3403 125.444 23.9086C125.548 24.4765 125.6 25.2455 125.6 26.2148V34.3999Z" fill="#212121"/>
<path d="M98.3174 20.7999C97.2731 20.7999 96.3553 20.9817 95.563 21.3451C94.771 21.7087 94.1037 22.2539 93.5626 22.9809H93.5061V21.1006H91.2V34.3999H93.7615V27.1297C93.7615 26.0434 93.9045 25.2034 94.189 24.6103C94.474 24.017 94.9556 23.5573 95.6339 23.2314C96.312 22.9058 97.0315 22.7427 97.791 22.7427C98.3245 22.7427 98.7926 22.8196 99.2 22.9688V20.8576C98.9071 20.823 98.6134 20.7999 98.3174 20.7999Z" fill="#212121"/>
<path d="M132.557 32.9728C131.975 32.9728 131.612 32.8249 131.469 32.5282C131.326 32.2321 131.254 31.7309 131.254 31.0235V22.7889H133.6V20.9458H131.254V16L128.908 17.4454V20.9458H127.2V22.7889H128.908V30.8908C128.908 31.8984 128.959 32.6855 129.064 33.2512C129.168 33.817 129.455 34.2833 129.925 34.6502C130.393 35.0167 131.141 35.2 132.166 35.2C132.314 35.2 132.475 35.1909 132.644 35.1775V32.9682C132.615 32.9688 132.585 32.9728 132.557 32.9728Z" fill="#212121"/>
<path d="M55.9999 34.3999H52.9686L49.2001 29.0166L45.3906 34.3999H42.3999L47.7118 27.3112L42.8234 20.7999H45.8684C47.8526 23.6116 48.9357 25.1797 49.1182 25.5041L52.6682 20.7999H55.604L50.5928 27.1835L55.9999 34.3999Z" fill="#212121"/>
<path d="M72 30.8907C72 31.8988 72.0562 32.6855 72.1676 33.2512C72.2792 33.8174 72.5866 34.2834 73.0889 34.6505C73.591 35.0167 74.3912 35.2 75.4889 35.2C75.6473 35.2 75.8202 35.1909 76 35.178V32.9685C75.9698 32.9693 75.9381 32.973 75.9073 32.973C75.2845 32.973 74.896 32.8251 74.7432 32.5282C74.5886 32.2326 74.5124 31.7313 74.5124 31.0236V16H72V30.8907Z" fill="#212121"/>
<path d="M0 15.6973H6.17793L15.5931 29.3532L6.16609 44.4211H0L9.2989 29.1869L0 15.6973Z" fill="#FC4C02"/>
<path d="M18.7187 33.8141L15.9895 38.8616L22.2975 48.0001H28.4496L18.7187 33.8141Z" fill="#FC4C02"/>
<path d="M13.3628 9.42791C12.4427 10.746 10.5526 12.4757 11.9396 14.642C13.3265 16.8082 14.0116 17.8798 14.8345 19.0439C15.6606 20.2125 18.7347 24.6913 18.7347 24.6913C18.7347 24.6913 26.3601 11.9455 26.7118 11.3593C27.0636 10.773 27.1807 9.60061 25.7739 8.07654C24.3671 6.55236 22.9489 5.96212 21.3612 4.42186C19.4901 2.60669 20.5382 0 20.5382 0C20.5382 0 19.2107 1.64136 18.8208 2.71325C18.4554 3.71802 18.5674 5.05152 19.6577 6.90724C20.3104 8.018 20.8864 8.33144 20.8499 10.3041C20.8303 11.359 19.8002 12.9785 19.8002 12.9785C19.8002 12.9785 19.9947 11.2148 19.4049 10.0728C18.2893 7.91256 17.0208 8.81109 16.3904 5.70643C15.6393 7.59644 15.7503 8.8741 16.1977 10.4046C16.8651 12.6878 15.1273 14.5411 15.1273 14.5411C15.1273 14.5411 15.6598 13.0489 14.6227 11.8509C13.7692 10.8649 13.2348 10.4046 13.3628 9.42791Z" fill="#FC4C02"/>
</svg>
