<svg width="16" height="16" viewBox="0 0 16 16" fill="none" xmlns="http://www.w3.org/2000/svg">
<path d="M16 9.3744V15.2896H12.5712V9.7696C12.5712 8.384 12.0752 7.4384 10.8336 7.4384C9.8864 7.4384 9.3216 8.0752 9.0736 8.6928C8.984 8.9136 8.96 9.2208 8.96 9.528V15.2896H5.5296C5.5296 15.2896 5.576 5.9424 5.5296 4.9744H8.96V6.4352L8.9376 6.4688H8.96V6.4368C9.416 5.7328 10.2288 4.7312 12.0512 4.7312C14.3072 4.7312 16 6.2064 16 9.3744ZM1.9408 0C0.768 0 0 0.7712 0 1.7824C0 2.7744 0.7456 3.5664 1.896 3.5664H1.9184C3.1152 3.5664 3.8592 2.7728 3.8592 1.7824C3.8368 0.7712 3.1152 0 1.9408 0ZM0.2032 15.2896H3.6336V4.9744H0.2032V15.2896Z" fill="#FC4C02"/>
</svg>
