<svg width="16" height="16" viewBox="0 0 16 13" fill="none" xmlns="http://www.w3.org/2000/svg">
<path d="M16 1.51522C15.4112 1.77122 14.7792 1.94722 14.1152 2.02402C14.7936 1.62402 15.312 0.990416 15.5584 0.236816C14.9216 0.606416 14.2208 0.876817 13.472 1.02082C13.163 0.696934 12.7913 0.439388 12.3795 0.263885C11.9677 0.0883823 11.5244 -0.00139924 11.0768 1.64857e-05C9.264 1.64857e-05 7.7952 1.44802 7.7952 3.23202C7.7952 3.48482 7.824 3.73122 7.88 3.96802C6.57972 3.90627 5.30659 3.57417 4.14184 2.99289C2.97708 2.41162 1.94628 1.59393 1.1152 0.592016C0.823301 1.08338 0.669616 1.64449 0.6704 2.21602C0.6704 3.33602 1.2512 4.32802 2.1312 4.90562C1.61031 4.88928 1.10058 4.75061 0.6432 4.50082V4.54082C0.648143 5.29195 0.91328 6.01816 1.39347 6.59578C1.87365 7.17341 2.53921 7.56674 3.2768 7.70882C2.79257 7.83685 2.28591 7.85544 1.7936 7.76322C2.0082 8.40941 2.41868 8.97274 2.96804 9.37501C3.51739 9.77728 4.17837 9.99852 4.8592 10.008C3.69114 10.9081 2.25702 11.3944 0.7824 11.3904C0.5184 11.3904 0.2576 11.3744 0 11.3456C1.50475 12.2981 3.24954 12.8025 5.0304 12.8C11.0688 12.8 14.3696 7.87522 14.3696 3.60322L14.3584 3.18402C15.0021 2.73166 15.5583 2.16623 16 1.51522Z" fill="#FC4C02"/>
</svg>
