<svg width="16" height="16" viewBox="0 0 16 16" fill="none" xmlns="http://www.w3.org/2000/svg">
<path d="M10.1535 8.00076L15.5352 2.61748C15.6806 2.47704 15.7966 2.30905 15.8764 2.12331C15.9562 1.93757 15.9982 1.7378 15.9999 1.53565C16.0017 1.3335 15.9632 1.13303 15.8866 0.945932C15.8101 0.758832 15.697 0.588851 15.5541 0.445907C15.4111 0.302963 15.2412 0.189918 15.0541 0.113369C14.867 0.0368208 14.6665 -0.00169911 14.4644 5.74816e-05C14.2622 0.00181408 14.0624 0.043812 13.8767 0.123601C13.691 0.203389 13.523 0.319371 13.3825 0.464777L7.99924 5.84654L2.61748 0.464777C2.47704 0.319371 2.30905 0.203389 2.12331 0.123601C1.93757 0.043812 1.7378 0.00181408 1.53565 5.74816e-05C1.3335 -0.00169911 1.13303 0.0368208 0.945932 0.113369C0.758832 0.189918 0.588851 0.302963 0.445907 0.445907C0.302963 0.588851 0.189918 0.758832 0.113369 0.945932C0.0368208 1.13303 -0.00169911 1.3335 5.74816e-05 1.53565C0.00181408 1.7378 0.043812 1.93757 0.123601 2.12331C0.203389 2.30905 0.319371 2.47704 0.464777 2.61748L5.84654 7.99924L0.464777 13.3825C0.319371 13.523 0.203389 13.691 0.123601 13.8767C0.043812 14.0624 0.00181408 14.2622 5.74816e-05 14.4644C-0.00169911 14.6665 0.0368208 14.867 0.113369 15.0541C0.189918 15.2412 0.302963 15.4111 0.445907 15.5541C0.588851 15.697 0.758832 15.8101 0.945932 15.8866C1.13303 15.9632 1.3335 16.0017 1.53565 15.9999C1.7378 15.9982 1.93757 15.9562 2.12331 15.8764C2.30905 15.7966 2.47704 15.6806 2.61748 15.5352L7.99924 10.1535L13.3825 15.5352C13.523 15.6806 13.691 15.7966 13.8767 15.8764C14.0624 15.9562 14.2622 15.9982 14.4644 15.9999C14.6665 16.0017 14.867 15.9632 15.0541 15.8866C15.2412 15.8101 15.4111 15.697 15.5541 15.5541C15.697 15.4111 15.8101 15.2412 15.8866 15.0541C15.9632 14.867 16.0017 14.6665 15.9999 14.4644C15.9982 14.2622 15.9562 14.0624 15.8764 13.8767C15.7966 13.691 15.6806 13.523 15.5352 13.3825L10.1535 7.99924V8.00076Z" fill="#828282"/>
</svg>
