<svg width="16" height="15" viewBox="0 0 16 15" fill="none" xmlns="http://www.w3.org/2000/svg">
<path d="M0 3.13744V11.8626C0 12.6659 0.334723 13.38 0.870281 13.9378C1.40584 14.4734 2.0976 14.7635 2.90094 14.7635H7.27465V12.956H2.90094C2.29843 12.956 1.82982 12.4651 1.82982 11.8626V3.13744C1.82982 2.53494 2.29843 2.06632 2.90094 2.06632H7.27465V0.236504H2.90094C2.0976 0.236504 1.40584 0.548912 0.870281 1.08447C0.334723 1.64234 0 2.3341 0 3.13744ZM4.7977 5.7706V9.25172C4.7977 9.65339 5.15474 9.98811 5.55641 9.98811H9.5954V12.7328C9.5954 12.9783 9.72929 13.1791 9.95244 13.2907C10.0417 13.313 10.131 13.313 10.1756 13.313C10.3318 13.313 10.4657 13.2684 10.5773 13.1568L15.8213 7.91283C16.0667 7.71199 16.0444 7.31032 15.8213 7.08718L10.5773 1.86549C10.2648 1.53077 9.5954 1.7316 9.5954 2.26716V5.03421H5.55641C5.15474 5.03421 4.7977 5.36893 4.7977 5.7706Z" fill="white"/>
</svg>
